<svg xmlns="http://www.w3.org/2000/svg" xmlns:xlink="http://www.w3.org/1999/xlink" viewBox="0 0 861.57 861.57"><defs><style>.cls-1{fill:none;}.cls-2{fill:#ffde00;}.cls-3{isolation:isolate;}.cls-4{clip-path:url(#clip-path);}.cls-5{fill:#112b47;}.cls-6{fill:#122d4a;}.cls-7{fill:#112a45;}.cls-8{clip-path:url(#clip-path-2);}.cls-9{fill:#1f4e81;}.cls-10{clip-path:url(#clip-path-3);}.cls-11{clip-path:url(#clip-path-4);}.cls-12{fill:#1f4f82;}.cls-13{fill:#205084;}</style><clipPath id="clip-path"><path class="cls-1" d="M226.8,329.18l4.77-11.69c15.54-38.1,54.13-61.17,109.15-65.51l2.21-.17c29.67-2.07,55.88,1.62,75.24,7.7L413.4,271.2c-19.36-6.07-45.56-9.76-75.24-7.69l-2.21.16C280.93,268,242.34,291.08,226.8,329.18Z"/></clipPath><clipPath id="clip-path-2"><path class="cls-1" d="M178.75,319.23l4.77-11.69c-11.06,27.1-13.12,59-4.79,94.2,24.86,104.89,115.29,156.16,218,149l2.51-.19c44.78-3.53,77.91-13.94,93.58-23l-4.77,11.69c-15.67,9-48.8,19.45-93.58,23l-2.51.19c-102.73,7.18-193.16-44.09-218-149C165.63,378.29,167.69,346.33,178.75,319.23Z"/></clipPath><clipPath id="clip-path-3"><path class="cls-1" d="M301,352.28l2.22-5.44c7.22-17.71,25.17-28.43,50.75-30.45l1-.07c13.83-1,26,.74,35,3.57l-2.22,5.44c-9-2.83-21.21-4.54-35-3.58l-1,.08C326.21,323.85,308.26,334.57,301,352.28Z"/></clipPath><clipPath id="clip-path-4"><path class="cls-1" d="M278.69,347.67l2.22-5.44c-5.13,12.59-6.1,27.43-2.22,43.76,11.55,48.74,53.61,72.56,101.38,69.22l1.15-.08c20.82-1.65,36.23-6.49,43.52-10.69l-2.22,5.44c-7.29,4.2-22.69,9-43.52,10.68l-1.14.09C330.08,464,288,440.17,276.47,391.43,272.6,375.1,273.56,360.26,278.69,347.67Z"/></clipPath></defs><g id="Capa_2" data-name="Capa 2"><g id="Capa_2-2" data-name="Capa 2"><circle class="cls-2" cx="430.79" cy="430.79" r="430.79"/><g class="cls-3"><g class="cls-3"><g class="cls-4"><g class="cls-3"><path class="cls-5" d="M418.17,259.51,413.4,271.2l-1-.32,4.77-11.7,1.05.33"/><path class="cls-6" d="M417.12,259.18l-4.77,11.7a185.94,185.94,0,0,0-37.08-7L380,252.16a186,186,0,0,1,37.08,7"/><path class="cls-5" d="M380,252.16l-4.77,11.69a231.38,231.38,0,0,0-37.11-.34l-2.21.16c-29.83,2.36-54.83,10.22-73.95,23L266.77,275c19.12-12.78,44.12-20.64,74-23l2.21-.17a232.5,232.5,0,0,1,37.11.35"/><path class="cls-7" d="M266.77,275,262,286.66c-16.14,10.79-28.08,25.08-35.2,42.52l4.77-11.69c7.11-17.44,19.06-31.74,35.2-42.52"/></g></g></g><g class="cls-3"><g class="cls-8"><g class="cls-3"><path class="cls-5" d="M492.84,527.55l-4.77,11.69c-15.67,9-48.8,19.45-93.58,23l-2.51.19a261.08,261.08,0,0,1-42.56-.44l4.77-11.69a262.22,262.22,0,0,0,42.56.43l2.51-.19c44.78-3.53,77.91-13.94,93.58-23"/><path class="cls-6" d="M354.19,550.29,349.42,562a228.86,228.86,0,0,1-45.55-8.88l4.77-11.69a229.58,229.58,0,0,0,45.55,8.88"/><path class="cls-5" d="M308.64,541.41l-4.77,11.69c-40.92-12.5-76-36.65-100.42-72l4.76-11.7c24.39,35.37,59.51,59.53,100.43,72"/><path class="cls-7" d="M208.21,469.38l-4.76,11.7c-13.28-19.25-23.37-41.82-29.49-67.64-8.33-35.15-6.27-67.11,4.79-94.21l4.77-11.69c-11.06,27.1-13.12,59-4.79,94.2,6.12,25.82,16.21,48.39,29.48,67.64"/></g></g></g><path class="cls-9" d="M334,216.94c44.09-3.08,73.95,3.05,87.54,7.69l-3.41,34.88c-19.36-6.08-45.57-9.77-75.24-7.7l-2.21.17c-86.29,6.81-132.16,59.67-112.09,144.36C247.2,474.66,310.25,521.18,398.71,515l2.1-.16c28.94-2.28,57.19-9.88,74.37-19.52l17.66,32.24c-15.67,9-48.8,19.45-93.58,23l-2.51.19c-102.73,7.18-193.16-44.09-218-149-23.94-101,37.94-175.55,152.08-184.56Z"/></g><g class="cls-3"><g class="cls-3"><g class="cls-10"><g class="cls-3"><path class="cls-5" d="M390,319.89l-2.22,5.44c-9-2.83-21.21-4.54-35-3.58l-1,.08A79.19,79.19,0,0,0,325,328.32l2.21-5.43a79.25,79.25,0,0,1,26.85-6.5l1-.07c13.83-1,26,.74,35,3.57"/><path class="cls-7" d="M327.16,322.89,325,328.32c-11.39,5.23-19.58,13.33-23.91,24l2.22-5.44c4.33-10.62,12.52-18.73,23.9-23.95"/></g></g></g><g class="cls-3"><g class="cls-11"><g class="cls-3"><path class="cls-7" d="M424.74,444.44l-2.22,5.44c-1,.55-2,1.11-3.28,1.68l2.22-5.44c1.23-.56,2.32-1.13,3.28-1.68"/><path class="cls-5" d="M421.46,446.12l-2.22,5.44c-8.14,3.73-22.14,7.57-40.24,9l-1.14.09c-32.82,2.29-62.94-8.23-82.33-30.84l2.22-5.43c19.39,22.61,49.51,33.13,82.32,30.83l1.15-.08c18.09-1.44,32.1-5.27,40.24-9"/><path class="cls-7" d="M297.75,424.38l-2.22,5.43a90.24,90.24,0,0,1-19.06-38.38c-3.87-16.33-2.91-31.17,2.22-43.76l2.22-5.44c-5.13,12.59-6.1,27.43-2.22,43.76a90.11,90.11,0,0,0,19.06,38.39"/></g></g></g><path class="cls-12" d="M350.91,300.11c20.5-1.44,34.38,1.42,40.71,3.57L390,319.89c-9-2.83-21.21-4.54-35-3.57l-1,.07c-40.12,3.17-61.45,27.73-52.12,67.09,8.63,36.39,37.95,58,79.07,55.12l1-.07c13.45-1.06,26.59-4.58,34.57-9.07l8.22,15c-7.29,4.2-22.7,9-43.52,10.69l-1.15.08c-47.77,3.34-89.83-20.48-101.38-69.22-11.13-46.92,17.65-81.58,70.71-85.77Z"/></g><polygon class="cls-13" points="622.45 190.49 598.64 300.51 699.26 349.59 642.93 377.67 559.94 337.55 406.59 388.17 411.61 403.92 369.63 382.88 390.72 341.14 395.87 356.65 546.5 306.79 565.15 218.39 622.45 190.49"/><path class="cls-13" d="M276.31,657.85c0-4.06-.13-7.56-.26-10.41h8.57l.45,4.31h.13c2.34-3.3,6-5,10.58-5,6.94,0,13.17,5.9,13.17,15.81,0,11.3-7.34,16.64-14.41,16.64-3.82,0-6.81-1.53-8.24-3.56h-.13v15.43h-9.86Zm9.86,7.3a9.29,9.29,0,0,0,.2,2,5.94,5.94,0,0,0,5.77,4.58c4.28,0,6.81-3.5,6.81-8.77,0-5-2.27-8.7-6.68-8.7a6.16,6.16,0,0,0-5.9,4.89,7.37,7.37,0,0,0-.2,1.72Z"/><path class="cls-13" d="M325.3,638.8c0,2.67-2.08,4.83-5.32,4.83s-5.19-2.16-5.13-4.83,2-4.89,5.19-4.89A4.91,4.91,0,0,1,325.3,638.8Zm-10.19,39.69v-31H325v31Z"/><path class="cls-13" d="M332.89,657.34c0-3.87-.13-7.17-.26-9.9h8.3l.46,4.19h.19a11,11,0,0,1,9.6-4.89c4.09,0,7.34,2,8.7,5.27H360a14.11,14.11,0,0,1,4.08-3.75,11.73,11.73,0,0,1,6-1.52c6.1,0,10.7,4.19,10.7,13.46v18.29h-9.6V661.6c0-4.51-1.49-7.12-4.67-7.12a4.82,4.82,0,0,0-4.54,3.37,7.9,7.9,0,0,0-.39,2.48v18.16H352v-17.4c0-3.94-1.43-6.61-4.54-6.61a5,5,0,0,0-4.61,3.5,6.16,6.16,0,0,0-.39,2.41v18.1h-9.6Z"/><path class="cls-13" d="M409.58,674.61h-.13c-2,2.93-5.19,4.58-9.41,4.58-6.88,0-13.17-5.91-13.17-15.82,0-11.11,7.26-16.63,14-16.63,4.09,0,7.07,1.46,8.83,4.32h.13l.26-3.62h9.53c-.06,3-.19,6.09-.19,9.33v34.29h-9.86Zm0-14.16a6.58,6.58,0,0,0-.2-1.58,5.76,5.76,0,0,0-5.64-4.64c-4.54,0-6.82,3.75-6.82,8.76,0,5.21,2.54,8.58,6.69,8.58a5.82,5.82,0,0,0,5.71-4.39,7.88,7.88,0,0,0,.26-2.09Z"/><path class="cls-13" d="M434.88,666c.32,4,4.35,5.91,8.95,5.91a28.65,28.65,0,0,0,8.76-1.27l1.3,6.54a31.9,31.9,0,0,1-11.48,1.9c-10.77,0-16.94-6.09-16.94-15.81,0-7.87,5-16.57,16-16.57,10.25,0,14.14,7.81,14.14,15.49a22.57,22.57,0,0,1-.32,3.81Zm11.61-6.6c0-2.35-1-6.29-5.58-6.29-4.15,0-5.84,3.68-6.09,6.29Z"/><path class="cls-13" d="M461.55,657.66c0-4.57-.13-7.56-.26-10.22h8.5l.32,5.71h.26a9.29,9.29,0,0,1,8.56-6.41,11,11,0,0,1,2.08.12v9.08a15.11,15.11,0,0,0-2.66-.25c-3.63,0-6.1,1.91-6.75,4.89a11.2,11.2,0,0,0-.19,2.16v15.75h-9.86Z"/><path class="cls-13" d="M481.27,673.35a5.65,5.65,0,0,1,5.84-5.91,5.88,5.88,0,0,1-.06,11.75A5.62,5.62,0,0,1,481.27,673.35Z"/><path class="cls-13" d="M522.66,677.73a24.58,24.58,0,0,1-8.82,1.39c-10.25,0-16.8-6.09-16.8-15.87,0-9.08,6.35-16.51,18.16-16.51a23.4,23.4,0,0,1,7.53,1.2l-1.56,7.18a13.72,13.72,0,0,0-5.51-1c-5.19,0-8.57,3.62-8.5,8.7,0,5.71,3.89,8.7,8.69,8.7a15.36,15.36,0,0,0,5.65-1Z"/><path class="cls-13" d="M558.74,662.61c0,11.37-8.24,16.58-16.74,16.58-9.28,0-16.41-6-16.41-16s6.74-16.44,16.93-16.44C552.25,646.74,558.74,653.28,558.74,662.61Zm-23,.32c0,5.33,2.27,9.34,6.49,9.34,3.83,0,6.29-3.75,6.29-9.34,0-4.64-1.81-9.33-6.29-9.33C537.52,653.6,535.77,658.36,535.77,662.93Z"/><path class="cls-13" d="M564.84,657.34c0-3.87-.13-7.17-.26-9.9h8.3l.46,4.19h.19a11,11,0,0,1,9.6-4.89c4.09,0,7.34,2,8.7,5.27H592a14.11,14.11,0,0,1,4.08-3.75,11.73,11.73,0,0,1,6-1.52c6.1,0,10.7,4.19,10.7,13.46v18.29h-9.6V661.6c0-4.51-1.49-7.12-4.67-7.12a4.82,4.82,0,0,0-4.54,3.37,7.9,7.9,0,0,0-.39,2.48v18.16H584v-17.4c0-3.94-1.43-6.61-4.54-6.61a5,5,0,0,0-4.61,3.5,6.16,6.16,0,0,0-.39,2.41v18.1h-9.6Z"/></g></g></svg>