<svg xmlns="http://www.w3.org/2000/svg" viewBox="0 0 793.17 138.48"><defs><style>.cls-1{fill:#205084;}</style></defs><g id="Capa_2" data-name="Capa 2"><g id="Capa_2-2" data-name="Capa 2"><path class="cls-1" d="M0,5.69C7.23,4.46,17.39,3.54,31.7,3.54s24.77,2.77,31.69,8.31c6.62,5.23,11.08,13.85,11.08,24s-3.38,18.77-9.54,24.62C56.93,68,45.08,71.4,31.24,71.4a58.71,58.71,0,0,1-8-.47V108H0ZM23.23,52.78a36.05,36.05,0,0,0,7.85.61c12.46,0,20.16-6.31,20.16-16.92,0-9.54-6.62-15.24-18.31-15.24a40,40,0,0,0-9.7.93Z"/><path class="cls-1" d="M111.4,11.85c0,6.46-4.92,11.69-12.62,11.69-7.38,0-12.31-5.23-12.15-11.69C86.47,5.08,91.4,0,98.94,0S111.25,5.08,111.4,11.85ZM87.24,108V32.77h23.39V108Z"/><path class="cls-1" d="M129.4,56.78c0-9.39-.31-17.39-.62-24h19.7l1.08,10.16H150c3.23-4.77,9.85-11.85,22.77-11.85,9.69,0,17.39,4.93,20.62,12.77h.31a33.84,33.84,0,0,1,9.69-9.08,27.18,27.18,0,0,1,14.31-3.69c14.46,0,25.39,10.16,25.39,32.62V108H220.34V67.09c0-10.93-3.54-17.24-11.08-17.24-5.39,0-9.23,3.7-10.77,8.16a19.4,19.4,0,0,0-.93,6v44H174.79V65.86c0-9.54-3.38-16-10.77-16-6,0-9.54,4.62-10.92,8.47a15.47,15.47,0,0,0-.93,5.84V108H129.4Z"/><path class="cls-1" d="M311.27,98.63H311c-4.77,7.08-12.31,11.08-22.31,11.08-16.31,0-31.24-14.31-31.24-38.31,0-26.93,17.24-40.32,33.24-40.32,9.69,0,16.77,3.54,20.93,10.46h.3l.62-8.77h22.62c-.16,7.24-.46,14.78-.46,22.62v83.09H311.27Zm0-34.31a16.88,16.88,0,0,0-.46-3.85,13.74,13.74,0,0,0-13.39-11.23c-10.77,0-16.16,9.08-16.16,21.23,0,12.62,6,20.78,15.85,20.78a13.87,13.87,0,0,0,13.54-10.62,19.2,19.2,0,0,0,.62-5.08Z"/><path class="cls-1" d="M371.27,77.86c.77,9.69,10.31,14.31,21.24,14.31a66.27,66.27,0,0,0,20.77-3.08l3.08,15.85c-7.7,3.08-17.08,4.62-27.24,4.62-25.54,0-40.16-14.78-40.16-38.32,0-19.08,11.85-40.16,38-40.16,24.31,0,33.54,18.93,33.54,37.55a55.24,55.24,0,0,1-.77,9.23Zm27.55-16c0-5.7-2.47-15.24-13.24-15.24-9.85,0-13.85,8.93-14.46,15.24Z"/><path class="cls-1" d="M434.51,57.55c0-11.08-.31-18.31-.62-24.78h20.16l.77,13.85h.62c3.84-10.92,13.08-15.54,20.31-15.54a23.9,23.9,0,0,1,4.92.31v22a33.35,33.35,0,0,0-6.31-.61c-8.61,0-14.46,4.61-16,11.85a27.29,27.29,0,0,0-.46,5.23V108H434.51Z"/><path class="cls-1" d="M481.29,95.55c0-8.31,5.69-14.31,13.84-14.31s13.7,5.85,13.7,14.31c0,8.16-5.54,14.16-13.85,14.16C487,109.71,481.29,103.71,481.29,95.55Z"/><path class="cls-1" d="M579.45,106.17c-4.15,1.85-12,3.39-20.92,3.39-24.32,0-39.86-14.78-39.86-38.47,0-22,15.08-40,43.09-40A54.48,54.48,0,0,1,579.61,34l-3.7,17.39c-2.77-1.23-6.92-2.31-13.08-2.31-12.3,0-20.31,8.78-20.15,21.09,0,13.84,9.23,21.08,20.62,21.08a36.14,36.14,0,0,0,13.38-2.31Z"/><path class="cls-1" d="M665,69.55c0,27.54-19.54,40.16-39.7,40.16-22,0-38.92-14.46-38.92-38.78s16-39.85,40.16-39.85C649.62,31.08,665,46.93,665,69.55Zm-54.47.77c0,12.92,5.39,22.62,15.39,22.62,9.08,0,14.93-9.08,14.93-22.62,0-11.23-4.31-22.62-14.93-22.62C614.69,47.7,610.53,59.24,610.53,70.32Z"/><path class="cls-1" d="M679.46,56.78c0-9.39-.3-17.39-.61-24h19.69l1.08,10.16h.46c3.23-4.77,9.85-11.85,22.77-11.85,9.7,0,17.39,4.93,20.62,12.77h.31a34,34,0,0,1,9.69-9.08,27.2,27.2,0,0,1,14.31-3.69c14.47,0,25.39,10.16,25.39,32.62V108H770.4V67.09c0-10.93-3.54-17.24-11.08-17.24-5.38,0-9.23,3.7-10.77,8.16a19.7,19.7,0,0,0-.92,6v44H724.85V65.86c0-9.54-3.38-16-10.77-16-6,0-9.54,4.62-10.92,8.47a15.46,15.46,0,0,0-.92,5.84V108H679.46Z"/></g></g></svg>