<svg xmlns="http://www.w3.org/2000/svg" xmlns:xlink="http://www.w3.org/1999/xlink" viewBox="0 0 530.41 466.31"><defs><style>.cls-1{fill:none;}.cls-2{isolation:isolate;}.cls-3{clip-path:url(#clip-path);}.cls-4{fill:#8a8a8a;}.cls-5{fill:#8f8f8f;}.cls-6{fill:#858585;}.cls-7{clip-path:url(#clip-path-2);}.cls-8{fill:#f9f9f9;}.cls-9{clip-path:url(#clip-path-3);}.cls-10{clip-path:url(#clip-path-4);}.cls-11{fill:#fbfbfb;}.cls-12{fill:#205084;}</style><clipPath id="clip-path"><path class="cls-1" d="M57.94,138.7,62.71,127C78.25,88.9,116.85,65.84,171.86,61.49l2.15-.16c29.7-2.08,55.93,1.61,75.3,7.7l-4.77,11.69c-19.36-6.09-45.6-9.77-75.3-7.7l-2.15.16C112.08,77.53,73.48,100.6,57.94,138.7Z"/></clipPath><clipPath id="clip-path-2"><path class="cls-1" d="M9.89,128.75l4.77-11.69c-11,27.1-13.12,59.05-4.79,94.2,24.86,104.89,115.3,156.16,218,149l2.5-.19c44.78-3.54,77.92-14,93.58-23l-4.77,11.69c-15.66,9-48.8,19.46-93.58,23l-2.5.18C120.4,379.12,30,327.84,5.1,223-3.23,187.81-1.16,155.85,9.89,128.75Z"/></clipPath><clipPath id="clip-path-3"><path class="cls-1" d="M132.18,161.8l2.22-5.44c7.22-17.71,25.17-28.43,50.75-30.45l1-.08c13.8-1,26,.75,35,3.57L219,134.83c-9-2.82-21.18-4.53-35-3.56l-1,.07C157.35,133.36,139.41,144.09,132.18,161.8Z"/></clipPath><clipPath id="clip-path-4"><path class="cls-1" d="M109.84,157.17l2.22-5.43c-5.14,12.59-6.1,27.43-2.22,43.76,11.55,48.74,53.59,72.56,101.36,69.22l1.17-.08c20.82-1.64,36.23-6.48,43.51-10.69l-2.22,5.44c-7.28,4.2-22.69,9-43.51,10.68l-1.17.09c-47.76,3.34-89.8-20.48-101.36-69.23C103.75,184.61,104.71,169.77,109.84,157.17Z"/></clipPath></defs><g id="Capa_2" data-name="Capa 2"><g id="Capa_3" data-name="Capa 3"><g class="cls-2"><g class="cls-2"><g class="cls-3"><g class="cls-2"><path class="cls-4" d="M249.31,69l-4.77,11.69-1.13-.35,4.77-11.69,1.13.35"/><path class="cls-5" d="M248.18,68.68l-4.77,11.69a185.22,185.22,0,0,0-37-7l4.77-11.7a185.9,185.9,0,0,1,37,7"/><path class="cls-4" d="M211.19,61.67l-4.77,11.7A231,231,0,0,0,169.24,73l-2.15.16c-29.82,2.36-54.82,10.22-73.94,23l4.77-11.69C117,71.7,142,63.84,171.86,61.49l2.15-.16a232.27,232.27,0,0,1,37.18.34"/><path class="cls-6" d="M97.92,84.48,93.15,96.17C77,107,65.06,121.26,57.94,138.7L62.71,127c7.12-17.45,19.07-31.74,35.21-42.53"/></g></g></g><g class="cls-2"><g class="cls-7"><g class="cls-2"><path class="cls-4" d="M324,337.06l-4.77,11.69c-15.66,9-48.8,19.46-93.58,23l-2.5.18a261.22,261.22,0,0,1-42.57-.43l4.77-11.7a261.2,261.2,0,0,0,42.57.44l2.5-.19c44.78-3.54,77.92-14,93.58-23"/><path class="cls-5" d="M185.33,359.8l-4.77,11.7A229.86,229.86,0,0,1,135,362.62l4.77-11.7a228.43,228.43,0,0,0,45.55,8.88"/><path class="cls-4" d="M139.78,350.92,135,362.62c-40.92-12.5-76-36.66-100.42-72l4.76-11.7c24.39,35.38,59.51,59.54,100.43,72"/><path class="cls-6" d="M39.35,278.89l-4.76,11.7C21.31,271.34,11.22,248.77,5.1,223c-8.33-35.14-6.26-67.1,4.79-94.2l4.77-11.69c-11,27.1-13.12,59.05-4.79,94.2,6.12,25.82,16.21,48.39,29.48,67.63"/></g></g></g><path class="cls-8" d="M165.24,26.45c44.07-3.08,73.9,3.06,87.48,7.69L249.31,69c-19.37-6.09-45.6-9.78-75.3-7.7l-2.15.16C85.58,68.31,39.7,121.16,59.77,205.85c18.57,78.33,81.62,124.83,170.08,118.65l2.1-.16c28.94-2.28,57.19-9.87,74.37-19.52L324,337.06c-15.66,9-48.8,19.45-93.58,23l-2.5.19c-102.73,7.18-193.17-44.09-218-149C-14.07,110.3,47.82,35.71,162,26.7Z"/></g><g class="cls-2"><g class="cls-2"><g class="cls-9"><g class="cls-2"><path class="cls-4" d="M221.17,129.4,219,134.83c-9-2.82-21.18-4.53-35-3.56l-1,.07a79.25,79.25,0,0,0-26.85,6.5l2.22-5.44a79.43,79.43,0,0,1,26.84-6.49l1-.08c13.8-1,26,.75,35,3.57"/><path class="cls-6" d="M158.31,132.4l-2.22,5.44c-11.38,5.22-19.58,13.33-23.91,24l2.22-5.44c4.33-10.62,12.52-18.73,23.91-24"/></g></g></g><g class="cls-2"><g class="cls-10"><g class="cls-2"><path class="cls-6" d="M255.88,254l-2.22,5.44c-1,.55-2.07,1.12-3.31,1.69l2.22-5.43c1.24-.57,2.34-1.14,3.31-1.7"/><path class="cls-4" d="M252.57,255.65l-2.22,5.43c-8.14,3.74-22.14,7.57-40.2,9l-1.17.09c-32.8,2.29-62.91-8.22-82.29-30.83l2.22-5.43c19.38,22.6,49.48,33.12,82.29,30.82l1.17-.08c18.06-1.43,32.06-5.26,40.2-9"/><path class="cls-6" d="M128.91,233.9l-2.22,5.43a90.21,90.21,0,0,1-19.07-38.4c-3.87-16.32-2.91-31.16,2.22-43.76l2.22-5.43c-5.14,12.59-6.1,27.43-2.22,43.76a90.21,90.21,0,0,0,19.07,38.4"/></g></g></g><path class="cls-11" d="M182.06,109.62c20.5-1.43,34.38,1.42,40.7,3.58l-1.59,16.2c-9-2.82-21.18-4.53-35-3.57l-1,.08C145,129.07,123.7,153.63,133,193c8.64,36.41,38,58,79.08,55.14l1-.07c13.46-1.07,26.59-4.6,34.58-9.07l8.21,15c-7.28,4.21-22.69,9.05-43.51,10.69l-1.17.08c-47.77,3.34-89.81-20.48-101.36-69.22-11.13-46.91,17.64-81.58,70.71-85.76Z"/></g><polygon class="cls-12" points="453.59 0 429.79 110.03 530.41 159.1 474.07 187.19 391.09 147.07 237.74 197.68 242.75 213.43 200.77 192.4 221.87 150.65 227.02 166.16 377.65 116.3 396.29 27.9 453.59 0"/><path class="cls-12" d="M75.34,402a93.71,93.71,0,0,1,15.35-1c7,0,12,1.34,15.35,4a14.71,14.71,0,0,1,5.36,11.63c0,4.92-1.64,9.09-4.62,11.92-3.87,3.65-9.61,5.29-16.31,5.29a28.66,28.66,0,0,1-3.88-.22v17.95H75.34Zm11.25,22.8a17,17,0,0,0,3.8.3c6,0,9.76-3.05,9.76-8.19,0-4.62-3.2-7.38-8.86-7.38a19,19,0,0,0-4.7.45Z"/><path class="cls-12" d="M129.29,405c0,3.13-2.39,5.67-6.11,5.67a5.54,5.54,0,0,1-5.89-5.67c-.08-3.27,2.31-5.73,6-5.73A5.69,5.69,0,0,1,129.29,405Zm-11.7,46.57V415.12h11.32v36.43Z"/><path class="cls-12" d="M138,426.74c0-4.54-.15-8.42-.3-11.62h9.54l.52,4.92H148a12.61,12.61,0,0,1,11-5.74c4.7,0,8.42,2.38,10,6.18h.15a16.3,16.3,0,0,1,4.69-4.39,13.08,13.08,0,0,1,6.93-1.79c7,0,12.29,4.92,12.29,15.79v21.46H182V431.73c0-5.29-1.72-8.34-5.37-8.34a5.53,5.53,0,0,0-5.21,3.95,9.4,9.4,0,0,0-.45,2.9v21.31H160V431.14c0-4.62-1.64-7.75-5.21-7.75a5.75,5.75,0,0,0-5.29,4.1,7.33,7.33,0,0,0-.45,2.83v21.23H138Z"/><path class="cls-12" d="M226.07,447h-.15c-2.31,3.43-6,5.36-10.8,5.36-7.9,0-15.13-6.93-15.13-18.55,0-13,8.35-19.52,16.09-19.52,4.7,0,8.13,1.71,10.14,5.06h.15l.29-4.24h11c-.08,3.5-.23,7.15-.23,10.95v40.24H226.07Zm0-16.62a8,8,0,0,0-.23-1.86,6.64,6.64,0,0,0-6.48-5.44c-5.21,0-7.82,4.4-7.82,10.28,0,6.11,2.9,10.06,7.67,10.06a6.71,6.71,0,0,0,6.56-5.14,9.41,9.41,0,0,0,.3-2.46Z"/><path class="cls-12" d="M255.12,437c.38,4.69,5,6.93,10.29,6.93a32.1,32.1,0,0,0,10.06-1.49l1.49,7.67a36,36,0,0,1-13.19,2.24c-12.37,0-19.45-7.16-19.45-18.55,0-9.24,5.74-19.45,18.4-19.45,11.78,0,16.25,9.16,16.25,18.18a26.57,26.57,0,0,1-.38,4.47Zm13.34-7.75c0-2.76-1.19-7.38-6.41-7.38-4.76,0-6.7,4.32-7,7.38Z"/><path class="cls-12" d="M285.75,427.11c0-5.36-.15-8.86-.3-12h9.76l.37,6.7h.3a10.69,10.69,0,0,1,9.83-7.52,11.62,11.62,0,0,1,2.39.15V425.1a16.17,16.17,0,0,0-3.06-.3c-4.17,0-7,2.24-7.74,5.74a13.29,13.29,0,0,0-.23,2.53v18.48H285.75Z"/><path class="cls-12" d="M308.4,445.52a6.55,6.55,0,0,1,6.7-6.93c3.95,0,6.63,2.83,6.63,6.93a6.67,6.67,0,1,1-13.33,0Z"/><path class="cls-12" d="M355.93,450.66a27.69,27.69,0,0,1-10.13,1.64c-11.77,0-19.3-7.16-19.3-18.63,0-10.65,7.3-19.37,20.86-19.37a26.45,26.45,0,0,1,8.65,1.41l-1.79,8.42a15.6,15.6,0,0,0-6.33-1.11c-6,0-9.84,4.24-9.76,10.2,0,6.71,4.47,10.21,10,10.21a17.46,17.46,0,0,0,6.48-1.12Z"/><path class="cls-12" d="M397.36,432.93c0,13.33-9.46,19.44-19.22,19.44-10.66,0-18.85-7-18.85-18.77s7.74-19.3,19.44-19.3C389.91,414.3,397.36,422,397.36,432.93ZM371,433.3c0,6.26,2.61,10.95,7.45,10.95,4.4,0,7.23-4.4,7.23-10.95,0-5.44-2.08-11-7.23-11C373,422.34,371,427.93,371,433.3Z"/><path class="cls-12" d="M404.36,426.74c0-4.54-.15-8.42-.3-11.62h9.54l.52,4.92h.23a12.61,12.61,0,0,1,11-5.74c4.7,0,8.42,2.38,10,6.18h.15a16.3,16.3,0,0,1,4.69-4.39,13.08,13.08,0,0,1,6.93-1.79c7,0,12.29,4.92,12.29,15.79v21.46h-11V431.73c0-5.29-1.72-8.34-5.37-8.34a5.53,5.53,0,0,0-5.21,3.95,9.4,9.4,0,0,0-.45,2.9v21.31h-11V431.14c0-4.62-1.64-7.75-5.21-7.75a5.75,5.75,0,0,0-5.29,4.1,7.33,7.33,0,0,0-.45,2.83v21.23h-11Z"/></g></g></svg>