<svg xmlns="http://www.w3.org/2000/svg" xmlns:xlink="http://www.w3.org/1999/xlink" viewBox="0 0 530.41 372.59"><defs><style>.cls-1{fill:none;}.cls-2{isolation:isolate;}.cls-3{clip-path:url(#clip-path);}.cls-4{fill:#112b47;}.cls-5{fill:#122d4a;}.cls-6{fill:#112a45;}.cls-7{clip-path:url(#clip-path-2);}.cls-8{fill:#1f4e81;}.cls-9{clip-path:url(#clip-path-3);}.cls-10{clip-path:url(#clip-path-4);}.cls-11{fill:#1f4f82;}.cls-12{fill:#205084;}</style><clipPath id="clip-path"><path class="cls-1" d="M57.94,138.7,62.71,127c15.54-38.1,54.13-61.16,109.15-65.51l2.21-.16C203.75,59.25,230,63,249.31,69l-4.77,11.7C225.18,74.64,199,71,169.3,73l-2.21.17C112.07,77.53,73.48,100.6,57.94,138.7Z"/></clipPath><clipPath id="clip-path-2"><path class="cls-1" d="M9.89,128.75l4.77-11.7c-11,27.1-13.12,59.06-4.79,94.21,24.86,104.89,115.29,156.16,218,149l2.5-.18c44.78-3.54,77.91-13.95,93.58-23l-4.77,11.7c-15.67,9-48.8,19.45-93.58,23l-2.5.19C120.39,379.11,30,327.84,5.1,223-3.23,187.8-1.16,155.85,9.89,128.75Z"/></clipPath><clipPath id="clip-path-3"><path class="cls-1" d="M132.18,161.79l2.22-5.43c7.22-17.72,25.17-28.44,50.75-30.46l1-.07c13.82-1,26,.75,35,3.57L219,134.84c-9-2.83-21.22-4.54-35-3.57l-1,.07C157.35,133.36,139.41,144.08,132.18,161.79Z"/></clipPath><clipPath id="clip-path-4"><path class="cls-1" d="M109.83,157.18l2.22-5.44c-5.13,12.59-6.09,27.44-2.22,43.76,11.56,48.75,53.61,72.57,101.38,69.23l1.15-.09c20.83-1.65,36.23-6.48,43.52-10.68l-2.22,5.43c-7.29,4.2-22.69,9-43.51,10.69l-1.15.08c-47.78,3.34-89.83-20.48-101.39-69.22C103.74,184.61,104.7,169.77,109.83,157.18Z"/></clipPath></defs><g id="Capa_2" data-name="Capa 2"><g id="Capa_2-2" data-name="Capa 2"><g class="cls-2"><g class="cls-2"><g class="cls-3"><g class="cls-2"><path class="cls-4" d="M249.31,69l-4.77,11.7-1-.33,4.77-11.69,1.05.32"/><path class="cls-5" d="M248.26,68.7l-4.77,11.69a186,186,0,0,0-37.07-7l4.77-11.7a186,186,0,0,1,37.07,7"/><path class="cls-4" d="M211.19,61.67l-4.77,11.7A231.47,231.47,0,0,0,169.3,73l-2.21.17c-29.83,2.35-54.83,10.21-73.95,23l4.77-11.7c19.12-12.77,44.12-20.63,74-23l2.21-.16a231.52,231.52,0,0,1,37.12.34"/><path class="cls-6" d="M97.91,84.48l-4.77,11.7C77,107,65.06,121.25,57.94,138.7L62.71,127c7.12-17.44,19.06-31.73,35.2-42.52"/></g></g></g><g class="cls-2"><g class="cls-7"><g class="cls-2"><path class="cls-4" d="M324,337.06l-4.77,11.7c-15.67,9-48.8,19.45-93.58,23l-2.5.19a262.34,262.34,0,0,1-42.57-.43l4.77-11.7a260.08,260.08,0,0,0,42.57.43l2.5-.18c44.78-3.54,77.91-13.95,93.58-23"/><path class="cls-5" d="M185.33,359.8l-4.77,11.7A229.72,229.72,0,0,1,135,362.62l4.77-11.7a229,229,0,0,0,45.55,8.88"/><path class="cls-4" d="M139.78,350.92,135,362.62c-40.92-12.5-76-36.66-100.42-72l4.77-11.7c24.38,35.38,59.5,59.53,100.42,72"/><path class="cls-6" d="M39.36,278.89l-4.77,11.7C21.32,271.34,11.22,248.77,5.1,223c-8.33-35.15-6.26-67.1,4.79-94.2l4.77-11.7c-11,27.1-13.12,59.06-4.79,94.21,6.12,25.81,16.22,48.39,29.49,67.63"/></g></g></g><path class="cls-8" d="M165.18,26.45c44.09-3.08,73.95,3.06,87.55,7.7L249.31,69C230,63,203.75,59.25,174.07,61.33l-2.21.16C85.57,68.3,39.7,121.16,59.77,205.85,78.34,284.17,141.4,330.69,229.85,324.5l2.1-.15c28.94-2.29,57.19-9.89,74.37-19.53L324,337.06c-15.67,9-48.8,19.45-93.58,23l-2.5.18c-102.74,7.19-193.17-44.08-218-149C-14.07,110.3,47.81,35.71,162,26.69Z"/></g><g class="cls-2"><g class="cls-2"><g class="cls-9"><g class="cls-2"><path class="cls-4" d="M221.16,129.4,219,134.84c-9-2.83-21.22-4.54-35-3.57l-1,.07a79.19,79.19,0,0,0-26.85,6.5l2.22-5.44a79.19,79.19,0,0,1,26.84-6.5l1-.07c13.82-1,26,.75,35,3.57"/><path class="cls-6" d="M158.31,132.4l-2.22,5.44c-11.39,5.22-19.58,13.33-23.91,23.95l2.22-5.43c4.33-10.63,12.52-18.74,23.91-24"/></g></g></g><g class="cls-2"><g class="cls-10"><g class="cls-2"><path class="cls-6" d="M255.88,254l-2.22,5.43c-.95.55-2,1.12-3.28,1.68l2.22-5.44c1.23-.56,2.32-1.12,3.28-1.67"/><path class="cls-4" d="M252.6,255.63l-2.22,5.44c-8.14,3.74-22.14,7.57-40.23,9l-1.15.08c-32.82,2.3-62.94-8.22-82.32-30.83l2.21-5.44c19.39,22.61,49.51,33.13,82.32,30.84l1.15-.09c18.1-1.43,32.1-5.27,40.24-9"/><path class="cls-6" d="M128.89,233.89l-2.21,5.44a90.23,90.23,0,0,1-19.07-38.39c-3.87-16.33-2.91-31.17,2.22-43.76l2.22-5.44c-5.13,12.59-6.09,27.44-2.22,43.76a90.22,90.22,0,0,0,19.06,38.39"/></g></g></g><path class="cls-11" d="M182.05,109.62c20.51-1.43,34.39,1.43,40.71,3.58l-1.6,16.2c-9-2.82-21.21-4.53-35-3.57l-1,.07C145,129.07,123.7,153.63,133,193c8.63,36.39,37.95,58,79.08,55.13l1-.07c13.45-1.07,26.59-4.59,34.58-9.08l8.21,15c-7.29,4.2-22.69,9-43.52,10.68l-1.15.09c-47.77,3.34-89.82-20.48-101.38-69.23-11.13-46.92,17.65-81.57,70.71-85.77Z"/></g><polygon class="cls-12" points="453.59 0 429.79 110.03 530.41 159.1 474.07 187.19 391.08 147.07 237.73 197.68 242.75 213.43 200.77 192.4 221.86 150.65 227.01 166.16 377.64 116.3 396.29 27.9 453.59 0"/></g></g></svg>